<svg width="92" height="92" viewBox="0 0 92 92" fill="none" xmlns="http://www.w3.org/2000/svg">
<rect width="92" height="92" rx="46" fill="#F8F8FA"/>
<path d="M75.1967 50.8695L64.3235 36.1888C63.8658 35.5847 63.1519 35.2186 62.3831 35.2186H29.5804C28.8116 35.2186 28.0977 35.5847 27.6401 36.1888L16.7668 50.8695V68.7535C16.7668 70.7671 18.4143 72.4146 20.4279 72.4146H71.5357C73.5492 72.4146 75.1967 70.7671 75.1967 68.7535V50.8695Z" fill="#757575"/>
<path d="M71.5356 72.7624H20.4278C18.2128 72.7624 16.4373 70.9685 16.4373 68.7719V50.8879C16.4373 50.8146 16.4556 50.7414 16.5105 50.6865L27.3837 36.0058C27.8962 35.3102 28.72 34.8892 29.5986 34.8892H62.4196C63.28 34.8892 64.1037 35.3102 64.6162 36.0058L75.4895 50.6865C75.5261 50.7414 75.5627 50.8146 75.5627 50.8879V68.7719C75.5261 70.9685 73.7505 72.7624 71.5356 72.7624ZM17.0962 50.9794V68.7536C17.0962 70.5841 18.5973 72.0852 20.4278 72.0852H71.5356C73.3661 72.0852 74.8671 70.5841 74.8671 68.7536V50.9794L64.0671 36.3902C63.6827 35.8594 63.0603 35.5482 62.4013 35.5482H29.5803C28.9213 35.5482 28.299 35.8594 27.9145 36.3902L17.0962 50.9794Z" fill="#757575"/>
<path d="M75.1967 50.8694V68.7535C75.1967 70.7671 73.5492 72.4145 71.5357 72.4145H20.4279C18.4143 72.4145 16.7668 70.7671 16.7668 68.7535V50.8694H32.5824L34.0651 58.2281C34.3397 59.5827 35.5479 60.5711 36.9207 60.5711H55.2075C56.617 60.5711 57.8252 59.5644 58.0814 58.1915L59.4543 50.8878L75.1967 50.8694Z" fill="#212121"/>
<path d="M38.1127 64.5885C38.4858 64.5885 38.7882 64.2861 38.7882 63.913C38.7882 63.54 38.4858 63.2375 38.1127 63.2375C37.7397 63.2375 37.4373 63.54 37.4373 63.913C37.4373 64.2861 37.7397 64.5885 38.1127 64.5885Z" fill="white"/>
<path d="M52.8483 64.5885C53.2214 64.5885 53.5238 64.2861 53.5238 63.913C53.5238 63.54 53.2214 63.2375 52.8483 63.2375C52.4753 63.2375 52.1729 63.54 52.1729 63.913C52.1729 64.2861 52.4753 64.5885 52.8483 64.5885Z" fill="white"/>
<path d="M71.5356 72.7624H20.4278C18.2128 72.7624 16.4373 70.9685 16.4373 68.7719V50.8878C16.4373 50.7048 16.5837 50.5583 16.7667 50.5583H32.5823C32.7471 50.5583 32.8752 50.6682 32.9118 50.8329L34.3945 58.1916C34.6325 59.3997 35.6942 60.26 36.9389 60.2784H55.2257C56.4705 60.2784 57.5505 59.3814 57.7701 58.155L59.143 50.8512C59.1796 50.6865 59.3078 50.5767 59.4725 50.5767H75.1966C75.3796 50.5767 75.5261 50.7231 75.5261 50.9062V68.7902C75.5261 70.9685 73.7322 72.7624 71.5356 72.7624ZM17.0962 51.199V68.7536C17.0962 70.5841 18.579 72.0851 20.4278 72.0851H71.5356C73.3661 72.0851 74.8671 70.6024 74.8671 68.7536V51.199H59.7654L58.4474 58.2465C58.1545 59.7841 56.8183 60.9007 55.244 60.9007H36.9573C35.4013 60.9007 34.0651 59.8024 33.7722 58.2831L32.3444 51.199H17.0962Z" fill="#757575"/>
<path d="M48.4589 68.7916C48.426 68.7916 48.3948 68.7825 48.3656 68.766C46.6577 67.7391 44.3641 67.7373 42.6562 68.7623C42.5702 68.8136 42.4567 68.7861 42.4054 68.7001C42.3542 68.6141 42.3816 68.5006 42.4676 68.4493C44.2872 67.3565 46.7327 67.3583 48.5541 68.453C48.6401 68.5042 48.6694 68.6177 48.6163 68.7038C48.5815 68.7587 48.5211 68.7916 48.4589 68.7916Z" fill="white"/>
<path d="M70.9682 64.4335H64.4149C64.2319 64.4335 64.0854 64.287 64.0854 64.104C64.0854 63.9209 64.2319 63.7745 64.4149 63.7745H70.9682C71.1512 63.7745 71.2977 63.9209 71.2977 64.104C71.2977 64.287 71.1512 64.4335 70.9682 64.4335Z" fill="white"/>
<path d="M34.1382 30.8256C33.9369 30.8256 33.7355 30.734 33.6074 30.5693L29.0677 24.5652C28.8297 24.2907 28.8664 23.8696 29.1409 23.6317C29.4155 23.3937 29.8365 23.4303 30.0745 23.7049C30.0928 23.7232 30.1111 23.7415 30.1111 23.7598L34.6508 29.7639C34.8704 30.0568 34.8155 30.4778 34.5226 30.6974C34.4311 30.7707 34.2847 30.8256 34.1382 30.8256Z" fill="#E53935"/>
<path d="M55.6468 30.8254C55.2807 30.8254 54.9878 30.5325 54.9878 30.1664C54.9878 30.02 55.0427 29.8736 55.1159 29.7637L59.6556 23.7597C59.8569 23.4485 60.278 23.3753 60.5891 23.5766C60.9003 23.778 60.9736 24.199 60.7722 24.5102C60.7539 24.5285 60.7539 24.5468 60.7356 24.5651L56.1959 30.5692C56.0495 30.7339 55.8481 30.8254 55.6468 30.8254Z" fill="#E53935"/>
<path d="M45.4141 28.8119C45.048 28.8119 44.7551 28.519 44.7551 28.1529V19.879C44.7734 19.5129 45.0846 19.2201 45.4507 19.2384C45.7985 19.2567 46.0731 19.5312 46.0914 19.879V28.1529C46.0731 28.519 45.7802 28.8119 45.4141 28.8119Z" fill="#E53935"/>
</svg>
