<svg width="440" height="440" viewBox="0 0 440 440" fill="none" xmlns="http://www.w3.org/2000/svg">
    <mask id="mask0_1662_2653" style="mask-type:alpha" maskUnits="userSpaceOnUse" x="0" y="0" width="440" height="440">
        <rect width="440" height="440" fill="#FC8F8F" />
    </mask>
    <g mask="url(#mask0_1662_2653)">
        <rect width="440" height="440" fill="#6099EE" />
        <rect x="191.229" y="128.384" width="57.5429" height="50.733" rx="7.16429" fill="#FFDD65" stroke="#383434"
            stroke-width="6.74286" />
        <path
            d="M174.371 257.964C174.371 254.008 177.579 250.8 181.536 250.8H258.464C262.421 250.8 265.629 254.008 265.629 257.964V296.73C265.629 300.018 263.403 302.844 260.289 303.566C231.058 310.341 211.213 310.354 179.826 303.476C176.652 302.78 174.371 299.924 174.371 296.598V257.964Z"
            fill="#FFDD65" stroke="#383434" stroke-width="6.74286" />
        <path
            d="M144.871 176.906C144.871 162.475 156.57 150.777 171 150.777H269C283.43 150.777 295.129 162.475 295.129 176.906V256.271C295.129 268.735 286.364 279.46 274.228 281.442C234.68 287.901 205.44 287.772 165.893 281.385C153.7 279.416 144.871 268.664 144.871 256.156V176.906Z"
            fill="#FFDD65" stroke="#383434" stroke-width="6.74286" />
        <path
            d="M144.871 176.906C144.871 162.475 156.57 150.777 171 150.777H269C283.43 150.777 295.129 162.475 295.129 176.906V256.271C295.129 268.735 286.364 279.46 274.228 281.442C234.68 287.901 205.44 287.772 165.893 281.385C153.7 279.416 144.871 268.664 144.871 256.156V176.906Z"
            stroke="#383434" stroke-width="6.74286" />
        <path
            d="M143.86 308.28C144.812 303.577 148.946 300.196 153.744 300.196H286.538C291.336 300.196 295.47 303.577 296.422 308.28L334.681 497.271C335.946 503.518 331.171 509.356 324.797 509.356H115.484C109.111 509.356 104.336 503.518 105.6 497.271L143.86 308.28Z"
            fill="#D0AB74" stroke="#383434" stroke-width="5.97601" />
        <path
            d="M174.229 298.876C177.018 301.991 201.022 305.22 220.049 305.22C239.076 305.22 263.081 301.991 265.87 298.876"
            stroke="#383434" stroke-width="5" />
        <path
            d="M159.185 303.183C159.185 307.627 182.589 322.505 221.236 322.505C259.883 322.505 281.157 306.828 281.157 303.183"
            stroke="#86765E" stroke-width="5" />
        <path
            d="M327.5 327.136C317.249 312.569 310.692 309.208 296.499 309.208L303.222 342.45L313.477 393.988L330.114 473.922C338.481 461.97 352.525 458.235 364.477 466.825C364.477 466.825 354.766 383.535 352.525 374.944C350.284 366.354 336.436 339.835 327.5 327.136Z"
            fill="#D0AB74" stroke="#383434" stroke-width="5.97601" stroke-linecap="round" stroke-linejoin="round" />
        <path
            d="M112.477 327.136C122.727 312.569 129.284 309.208 143.477 309.208L136.754 342.45L126.5 393.988L109.862 473.922C101.496 461.97 87.452 458.235 75.5 466.825C75.5 466.825 85.211 383.535 87.452 374.944C89.693 366.354 103.54 339.835 112.477 327.136Z"
            fill="#D0AB74" stroke="#383434" stroke-width="5.97601" stroke-linecap="round" stroke-linejoin="round" />
        <path d="M172.987 347.315L150.86 383.188L172.987 417.308L194.377 383.188L172.987 347.315Z" fill="#67430E" />
        <path d="M224.356 347.315L202.229 383.188L224.356 417.308L245.746 383.188L224.356 347.315Z" fill="#86765E" />
        <path d="M275.303 347.315L253.177 383.188L275.303 417.308L296.693 383.188L275.303 347.315Z" fill="#67430E" />
        <path d="M140.478 410.746L195.184 357.041L255.362 410.746L297.069 357.041" stroke="#383434" stroke-width="2"
            stroke-dasharray="2 2" />
        <path d="M144.835 357.041L196.002 410.746L252.019 355.317L303.849 408.645" stroke="#383434" stroke-width="2"
            stroke-dasharray="2 2" />
        <circle cx="199.452" cy="211.169" r="7.5" fill="#383434" />
        <circle cx="243.492" cy="210.672" r="7.5" fill="#383434" />
        <path
            d="M268.588 192.993C261.533 188.892 252.056 189.137 231.43 196.374C227.217 197.852 225.486 193.622 227.217 191.276C239.985 186.239 265.89 183.866 269.268 192.503C269.428 192.913 268.972 193.217 268.588 192.993Z"
            fill="#383434" />
        <path
            d="M172.409 190.583C180.451 186.267 190.707 189.163 209.604 195.793C213.443 197.139 215.02 193.285 213.443 191.149C201.786 186.549 175.877 181.386 171.801 190.094C171.625 190.469 172.041 190.78 172.409 190.583Z"
            fill="#383434" />
        <path fill-rule="evenodd" clip-rule="evenodd"
            d="M198.034 278.052C206.08 279.007 237.815 280.067 246.318 278.052C254.82 276.037 283.673 262.104 283.673 262.104C282.454 250.611 286.245 214.066 288.172 195.489C288.796 189.475 289.225 185.345 289.225 184.556C289.225 181.977 286.717 179.064 285.464 177.93L276.828 254.325L256.022 262.104V241.551C247.65 239.329 228.385 238.641 228.385 238.641C223.423 241.489 220.744 242.159 214.513 238.641L187.088 241.551V262.104L159.741 256.193L150.381 177.93C149.004 178.849 146.249 181.461 146.249 184.556C146.249 185.459 146.77 190.884 147.508 198.567C149.298 217.219 152.368 249.184 152.368 262.104C152.368 262.104 189.988 277.097 198.034 278.052ZM195.928 249.993V263.669L213.532 268.609L223.286 265.987L233.573 268.609L248.543 263.669V248.22C244.857 246.377 238.951 247.887 233.011 249.405C228.993 250.433 224.959 251.464 221.586 251.464C217.799 251.464 214.002 250.653 210.42 249.887C204.754 248.677 199.627 247.581 195.928 249.993Z"
            fill="#6A4C1E" />
        <path
            d="M283.673 262.104L284.525 263.869C285.27 263.509 285.709 262.72 285.622 261.897L283.673 262.104ZM288.172 195.489L286.223 195.287L288.172 195.489ZM285.464 177.93L286.779 176.477C286.233 175.984 285.458 175.837 284.771 176.097C284.083 176.357 283.599 176.98 283.516 177.71L285.464 177.93ZM276.828 254.325L277.514 256.161C278.205 255.903 278.693 255.278 278.776 254.545L276.828 254.325ZM256.022 262.104H254.062C254.062 262.746 254.377 263.348 254.905 263.714C255.433 264.08 256.107 264.164 256.708 263.939L256.022 262.104ZM256.022 241.551H257.982C257.982 240.662 257.384 239.884 256.525 239.656L256.022 241.551ZM228.385 238.641L228.455 236.682C228.089 236.669 227.726 236.759 227.409 236.941L228.385 238.641ZM214.513 238.641L215.476 236.934C215.121 236.734 214.712 236.649 214.306 236.692L214.513 238.641ZM187.088 241.551L186.882 239.602C185.885 239.707 185.128 240.548 185.128 241.551H187.088ZM187.088 262.104L186.674 264.019C187.254 264.145 187.858 264.001 188.319 263.629C188.78 263.257 189.049 262.696 189.049 262.104H187.088ZM159.741 256.193L157.795 256.426C157.894 257.256 158.509 257.932 159.327 258.109L159.741 256.193ZM150.381 177.93L152.327 177.697C152.246 177.021 151.82 176.435 151.201 176.15C150.583 175.865 149.86 175.922 149.293 176.3L150.381 177.93ZM147.508 198.567L149.459 198.38L147.508 198.567ZM152.368 262.104H150.407C150.407 262.906 150.897 263.627 151.642 263.924L152.368 262.104ZM195.928 263.669H193.968C193.968 264.548 194.553 265.319 195.399 265.556L195.928 263.669ZM195.928 249.993L194.858 248.351C194.303 248.713 193.968 249.331 193.968 249.993H195.928ZM213.532 268.609L213.003 270.496C213.342 270.591 213.701 270.593 214.041 270.501L213.532 268.609ZM223.286 265.987L223.77 264.087C223.444 264.004 223.102 264.006 222.777 264.094L223.286 265.987ZM233.573 268.609L233.089 270.508C233.451 270.6 233.833 270.587 234.187 270.47L233.573 268.609ZM248.543 263.669L249.158 265.53C249.961 265.265 250.503 264.515 250.503 263.669H248.543ZM248.543 248.22H250.503C250.503 247.477 250.084 246.799 249.42 246.467L248.543 248.22ZM233.011 249.405L232.526 247.506L233.011 249.405ZM210.42 249.887L210.829 247.971H210.829L210.42 249.887ZM245.865 276.145C243.945 276.6 240.541 276.909 236.241 277.078C231.99 277.245 227.012 277.272 222.031 277.206C212.042 277.073 202.181 276.57 198.265 276.106L197.803 279.998C201.933 280.488 211.963 280.993 221.979 281.126C227 281.192 232.052 281.166 236.395 280.995C240.688 280.826 244.439 280.512 246.77 279.959L245.865 276.145ZM283.673 262.104C282.82 260.339 282.82 260.339 282.82 260.339C282.82 260.339 282.82 260.339 282.819 260.339C282.818 260.339 282.817 260.34 282.816 260.341C282.812 260.343 282.807 260.345 282.8 260.348C282.787 260.355 282.766 260.365 282.739 260.378C282.685 260.404 282.604 260.443 282.498 260.494C282.285 260.596 281.973 260.746 281.571 260.938C280.768 261.321 279.611 261.872 278.196 262.539C275.364 263.874 271.502 265.674 267.377 267.535C259.032 271.302 249.891 275.191 245.865 276.145L246.77 279.959C251.246 278.898 260.783 274.812 268.99 271.108C273.141 269.235 277.023 267.426 279.867 266.085C281.29 265.414 282.453 264.861 283.261 264.475C283.665 264.282 283.981 264.13 284.195 264.027C284.303 263.976 284.385 263.936 284.44 263.909C284.468 263.896 284.489 263.886 284.503 263.879C284.51 263.876 284.516 263.873 284.519 263.871C284.521 263.87 284.523 263.87 284.523 263.869C284.524 263.869 284.524 263.869 284.525 263.869C284.525 263.869 284.525 263.869 283.673 262.104ZM286.223 195.287C285.259 204.572 283.828 218.375 282.789 231.296C281.757 244.134 281.091 256.344 281.724 262.31L285.622 261.897C285.036 256.37 285.656 244.561 286.697 231.61C287.731 218.741 289.158 204.983 290.122 195.691L286.223 195.287ZM287.264 184.556C287.264 184.827 287.173 185.928 286.982 187.871C286.797 189.748 286.535 192.278 286.223 195.287L290.122 195.691C290.433 192.687 290.697 190.144 290.883 188.255C291.062 186.432 291.185 185.073 291.185 184.556H287.264ZM284.149 179.384C284.667 179.853 285.494 180.74 286.176 181.778C286.887 182.86 287.264 183.84 287.264 184.556H291.185C291.185 182.694 290.308 180.928 289.452 179.625C288.567 178.278 287.513 177.142 286.779 176.477L284.149 179.384ZM278.776 254.545L287.411 178.15L283.516 177.71L274.88 254.105L278.776 254.545ZM256.708 263.939L277.514 256.161L276.142 252.489L255.336 260.268L256.708 263.939ZM254.062 241.551V262.104H257.982V241.551H254.062ZM228.385 238.641C228.315 240.6 228.315 240.6 228.315 240.6C228.315 240.6 228.315 240.6 228.315 240.6C228.316 240.6 228.316 240.6 228.317 240.6C228.319 240.6 228.323 240.6 228.327 240.6C228.336 240.601 228.349 240.601 228.367 240.602C228.403 240.603 228.456 240.605 228.527 240.608C228.667 240.613 228.876 240.622 229.145 240.633C229.683 240.656 230.463 240.692 231.425 240.741C233.351 240.839 236.003 240.994 238.914 241.217C244.794 241.668 251.531 242.387 255.519 243.445L256.525 239.656C252.141 238.493 245.059 237.757 239.214 237.309C236.261 237.082 233.574 236.926 231.626 236.826C230.651 236.776 229.86 236.74 229.312 236.717C229.038 236.705 228.825 236.697 228.679 236.691C228.607 236.688 228.551 236.686 228.513 236.685C228.494 236.684 228.48 236.683 228.47 236.683C228.465 236.683 228.461 236.683 228.459 236.683C228.457 236.682 228.456 236.682 228.456 236.682C228.455 236.682 228.455 236.682 228.455 236.682C228.455 236.682 228.455 236.682 228.385 238.641ZM213.549 240.348C216.784 242.174 219.396 243.092 222.004 242.987C224.588 242.882 226.859 241.777 229.36 240.341L227.409 236.941C224.949 238.353 223.4 239.007 221.846 239.07C220.316 239.132 218.473 238.626 215.476 236.934L213.549 240.348ZM187.295 243.5L214.719 240.59L214.306 236.692L186.882 239.602L187.295 243.5ZM189.049 262.104V241.551H185.128V262.104H189.049ZM159.327 258.109L186.674 264.019L187.503 260.188L160.155 254.277L159.327 258.109ZM148.435 178.163L157.795 256.426L161.687 255.96L152.327 177.697L148.435 178.163ZM148.209 184.556C148.209 183.587 148.649 182.566 149.37 181.598C150.085 180.639 150.949 179.907 151.469 179.561L149.293 176.3C148.436 176.872 147.234 177.905 146.227 179.255C145.227 180.597 144.289 182.43 144.289 184.556H148.209ZM149.459 198.38C149.09 194.536 148.775 191.264 148.554 188.84C148.325 186.349 148.209 184.892 148.209 184.556H144.289C144.289 185.123 144.433 186.831 144.65 189.198C144.873 191.633 145.188 194.915 145.557 198.755L149.459 198.38ZM154.328 262.104C154.328 249.063 151.244 216.97 149.459 198.38L145.557 198.755C147.353 217.468 150.407 249.304 150.407 262.104H154.328ZM198.265 276.106C196.486 275.895 192.821 274.85 188.12 273.296C183.494 271.767 178.062 269.813 172.866 267.882C167.673 265.953 162.729 264.053 159.082 262.635C157.259 261.925 155.761 261.337 154.719 260.926C154.198 260.721 153.791 260.56 153.515 260.45C153.376 260.395 153.271 260.353 153.2 260.325C153.164 260.311 153.138 260.3 153.12 260.293C153.111 260.29 153.104 260.287 153.1 260.285C153.097 260.285 153.096 260.284 153.095 260.283C153.094 260.283 153.094 260.283 153.094 260.283C153.093 260.283 153.093 260.283 152.368 262.104C151.642 263.924 151.642 263.924 151.642 263.925C151.643 263.925 151.643 263.925 151.644 263.925C151.645 263.926 151.647 263.926 151.649 263.927C151.654 263.929 151.661 263.932 151.67 263.935C151.688 263.943 151.716 263.954 151.752 263.968C151.823 263.997 151.93 264.039 152.069 264.094C152.348 264.205 152.757 264.367 153.281 264.573C154.328 264.986 155.831 265.576 157.661 266.288C161.32 267.711 166.283 269.619 171.501 271.557C176.716 273.494 182.198 275.468 186.889 277.018C191.505 278.544 195.559 279.732 197.803 279.998L198.265 276.106ZM197.888 263.669V249.993H193.968V263.669H197.888ZM214.062 266.721L196.458 261.782L195.399 265.556L213.003 270.496L214.062 266.721ZM222.777 264.094L213.023 266.716L214.041 270.501L223.795 267.879L222.777 264.094ZM234.057 266.709L223.77 264.087L222.802 267.886L233.089 270.508L234.057 266.709ZM247.929 261.808L232.959 266.747L234.187 270.47L249.158 265.53L247.929 261.808ZM246.583 248.22V263.669H250.503V248.22H246.583ZM233.497 251.304C236.498 250.537 239.333 249.815 241.867 249.497C244.438 249.173 246.355 249.317 247.667 249.973L249.42 246.467C247.045 245.28 244.167 245.257 241.378 245.607C238.552 245.963 235.465 246.755 232.526 247.506L233.497 251.304ZM221.586 253.424C225.258 253.424 229.556 252.312 233.497 251.304L232.526 247.506C228.429 248.554 224.66 249.504 221.586 249.504V253.424ZM210.01 251.804C213.557 252.562 217.557 253.424 221.586 253.424V249.504C218.041 249.504 214.447 248.744 210.829 247.971L210.01 251.804ZM196.999 251.635C198.364 250.745 200.097 250.426 202.338 250.539C204.602 250.654 207.136 251.19 210.01 251.804L210.829 247.971C208.038 247.374 205.176 246.758 202.535 246.624C199.871 246.49 197.191 246.83 194.858 248.351L196.999 251.635Z"
            fill="#3B2607" />
        <path d="M208.489 258.522C214.512 259.35 228.564 260.011 236.595 256.042" stroke="#3B2607" stroke-width="6"
            stroke-linecap="round" stroke-linejoin="round" />
        <path fill-rule="evenodd" clip-rule="evenodd"
            d="M196.351 220.693C205.801 219.772 211.505 212.963 210.908 206.84C210.312 200.717 203.401 195.137 193.95 196.058C184.5 196.979 178.796 203.788 179.393 209.911C179.989 216.034 186.9 221.613 196.351 220.693ZM214.954 207.708C215.001 216.2 207.131 223.661 196.739 224.674C185.837 225.736 176.289 219.3 175.412 210.299C175.275 208.894 175.357 207.509 175.635 206.169C175.468 206.034 175.244 205.865 174.976 205.692C174.397 205.317 173.701 204.978 172.993 204.854L151.964 210.531C151.571 210.637 151.151 210.579 150.801 210.369C150.451 210.159 150.202 209.815 150.111 209.418L149.781 207.978C149.597 207.174 150.098 206.371 150.901 206.183L151.238 207.62C150.901 206.183 150.902 206.183 150.902 206.183L150.902 206.183L150.905 206.182L150.916 206.179L150.958 206.17L151.122 206.131C151.265 206.098 151.475 206.049 151.743 205.987C152.279 205.863 153.047 205.686 153.976 205.475C155.833 205.052 158.334 204.489 160.907 203.934C163.477 203.379 166.13 202.829 168.288 202.431C169.365 202.232 170.333 202.069 171.112 201.962C171.826 201.864 172.554 201.786 173.043 201.835C174.504 201.981 175.764 202.628 176.606 203.173L176.61 203.175C179.228 197.337 185.667 192.846 193.562 192.077C202.901 191.167 211.247 195.76 213.999 202.754C214.317 202.657 214.717 202.545 215.187 202.434C216.395 202.15 218.093 201.868 220.085 201.868C222.077 201.868 223.779 202.151 224.989 202.434C225.403 202.531 225.762 202.629 226.059 202.717C228.826 195.744 237.159 191.169 246.482 192.077C254.526 192.861 261.059 197.508 263.579 203.507C263.726 203.4 263.889 203.287 264.065 203.173C264.907 202.628 266.167 201.981 267.628 201.835C268.117 201.786 268.846 201.864 269.559 201.962C270.338 202.069 271.306 202.232 272.383 202.431C274.541 202.829 277.194 203.379 279.764 203.934C282.337 204.489 284.838 205.052 286.695 205.475C287.624 205.686 288.392 205.863 288.928 205.987C289.196 206.049 289.406 206.098 289.55 206.131L289.713 206.17L289.755 206.179L289.766 206.182L289.769 206.183L289.77 206.183C289.77 206.183 289.77 206.183 289.433 207.62L289.77 206.183C290.574 206.371 291.074 207.174 290.89 207.978L290.56 209.418C290.469 209.815 290.22 210.159 289.87 210.369C289.521 210.579 289.101 210.637 288.707 210.531L267.679 204.854C266.97 204.978 266.274 205.317 265.695 205.692C265.382 205.894 265.129 206.091 264.956 206.234C264.87 206.306 264.806 206.363 264.766 206.399C264.746 206.417 264.732 206.43 264.724 206.437L264.719 206.443C264.649 206.511 264.574 206.571 264.495 206.622C264.703 207.821 264.754 209.052 264.633 210.299C263.756 219.3 254.207 225.736 243.306 224.674C232.892 223.659 225.011 216.17 225.091 207.656C225.042 207.639 224.977 207.617 224.896 207.591C224.665 207.516 224.308 207.41 223.848 207.302C222.925 207.086 221.613 206.868 220.085 206.868C218.557 206.868 217.25 207.086 216.332 207.302C215.875 207.409 215.52 207.515 215.29 207.589C215.176 207.627 215.092 207.656 215.044 207.674C215.019 207.683 215.004 207.689 214.997 207.691L214.995 207.692C214.981 207.697 214.968 207.703 214.954 207.708ZM243.694 220.693C234.243 219.772 228.539 212.963 229.136 206.84C229.733 200.717 236.644 195.137 246.094 196.058C255.544 196.979 261.248 203.788 260.652 209.911C260.055 216.034 253.144 221.613 243.694 220.693Z"
            fill="#383434" />
        <path
            d="M142.512 209.475V234.856C137.004 227.291 125.57 211.307 123.905 207.889C122.239 204.472 123.211 198.631 123.905 196.137C122.054 195.331 117.729 191.298 115.231 181.62C112.732 171.942 117.659 163.23 120.435 160.084C119.602 152 125.177 145.495 128.069 143.253C128.069 127.951 139.404 122.36 145.071 121.478L146.336 111.457L146.479 111.012C148.186 105.711 151.06 96.7865 152.955 92.0975C154.647 87.913 158.907 90.873 161.208 92.0975C160.63 90.7149 161.448 87.3967 165.89 85.1848C170.331 82.9729 177.456 84.2632 180.463 85.1848C180.926 82.7652 182.545 77.3037 185.321 74.8151C188.097 72.3264 198.737 73.7781 203.711 74.8151C204.058 71.3586 209.956 65.483 215.877 65.483C220.614 65.483 223.851 71.7044 224.877 74.8151L234.069 75.4892C238.053 75.4892 241.119 72.888 242.762 71.4C245.418 68.9946 247.885 65.483 252.768 63.1582C265.259 59.0105 266.63 76.8893 266.514 85.1848C276.507 79.1014 283.632 94.1717 285.945 102.467C294.551 102.191 304.567 121.017 308.499 130.465C323.771 138.069 321.337 151.852 325.848 170.19C330.359 188.527 311.452 202.4 312.432 212.161C313.216 219.97 302.438 237.669 296.951 245.543L298.91 212.161C297.734 212.096 294.952 212.005 293.227 212.161C291.072 212.356 288.72 198.496 283.821 198.496C278.921 198.496 279.901 179.95 279.509 170.19C279.117 160.429 263.244 161.795 257.953 162.381C252.662 162.967 240.438 154.589 238.31 153.434C236.183 152.278 231.155 154.782 227.674 154.589C224.889 154.435 218.649 152.701 215.877 151.852C214.606 152.996 210.961 155.42 206.554 155.968C202.147 156.517 195.536 153.453 192.782 151.852C187.502 154.368 175.153 159.536 167.991 160.084C160.829 160.633 158.121 164.886 157.662 166.944C154.219 198.499 148.021 195.069 148.021 199.185C148.021 202.477 144.348 207.417 142.512 209.475Z"
            fill="#744C10" />
        <path
            d="M148.021 199.185C148.021 202.477 144.348 207.417 142.512 209.475V234.856C137.004 227.291 125.57 211.307 123.905 207.889C122.239 204.472 123.211 198.631 123.905 196.137C122.054 195.331 117.729 191.298 115.231 181.62C112.732 171.942 117.659 163.23 120.435 160.084C119.602 152 125.177 145.495 128.069 143.253M148.021 199.185C148.021 195.069 154.219 198.499 157.662 166.944C158.121 164.886 160.829 160.633 167.991 160.084C175.153 159.536 187.502 154.368 192.782 151.852M148.021 199.185C143.44 195.672 134.35 185.578 134.636 173.298M192.782 151.852C195.536 153.453 202.147 156.517 206.554 155.968C210.961 155.42 214.606 152.996 215.877 151.852M192.782 151.852C198.484 146.774 209.889 134.101 209.889 124.037M215.877 151.852C218.649 152.701 224.889 154.435 227.674 154.589C231.155 154.782 236.183 152.278 238.31 153.434M215.877 151.852C221.871 148.173 234.749 139.243 238.31 132.961M238.31 153.434C240.438 154.589 252.662 162.967 257.953 162.381M238.31 153.434C246.161 150.536 262.793 142.67 266.514 134.389M257.953 162.381C263.244 161.795 279.117 160.429 279.509 170.19C279.901 179.95 278.921 198.496 283.821 198.496M257.953 162.381C264.358 160.186 278.047 154.084 281.558 147.24M283.821 198.496C288.72 198.496 291.072 212.356 293.227 212.161C294.952 212.005 297.734 212.096 298.91 212.161M283.821 198.496C290.158 196.137 291.659 182.951 293.227 173.298M298.91 212.161L296.951 245.543C302.438 237.669 313.216 219.97 312.432 212.161C311.452 202.4 330.359 188.527 325.848 170.19C321.337 151.852 323.771 138.069 308.499 130.465M298.91 212.161C302.107 208.607 308.499 198.857 308.499 188.291M308.499 130.465C304.567 121.017 294.551 102.191 285.945 102.467M308.499 130.465C308.495 133.493 306.945 140.278 305.567 143.253M285.945 102.467C283.632 94.1717 276.507 79.1014 266.514 85.1848M285.945 102.467C285.727 104.588 284.997 109.354 283.821 111.457M266.514 85.1848C266.63 76.8893 265.259 59.0105 252.768 63.1582C247.885 65.483 245.418 68.9946 242.762 71.4C241.119 72.888 238.053 75.4892 234.069 75.4892L224.877 74.8151M266.514 85.1848C266.815 87.5377 266.784 92.9114 264.256 95.5827M224.877 74.8151C223.851 71.7044 220.614 65.483 215.877 65.483C209.956 65.483 204.058 71.3586 203.711 74.8151M224.877 74.8151C225.809 76.8171 227.674 81.6938 227.674 85.1848M203.711 74.8151C198.737 73.7781 188.097 72.3264 185.321 74.8151C182.545 77.3037 180.926 82.7652 180.463 85.1848M203.711 74.8151C201.667 77.7149 197.984 84.7212 199.599 89.5485M180.463 85.1848C177.456 84.2632 170.331 82.9729 165.89 85.1848C161.448 87.3967 160.63 90.7149 161.208 92.0975M180.463 85.1848C179.183 87.0225 177.006 91.6748 178.543 95.5827M161.208 92.0975C158.907 90.873 154.647 87.913 152.955 92.0975C151.005 96.9202 148.021 106.224 146.336 111.457L145.071 121.478M161.208 92.0975C160.71 94.1953 162.269 98.5175 163.464 100.673M145.071 121.478C139.404 122.36 128.069 127.951 128.069 143.253M145.071 121.478C142.382 125.201 140.664 142.412 145.071 147.24M128.069 143.253C128.45 145.207 132.146 153.779 134.636 155.968"
            stroke="#422B09" stroke-width="7" stroke-linecap="round" stroke-linejoin="round" />
        <path
            d="M150.819 298.321L142.623 297.801C139.422 296.798 133.84 294.647 131.251 289.93C129.795 287.278 121.464 288.889 118.154 289.693C114.016 290.699 113.81 272.258 106.98 272.742C100.151 273.226 94.5979 283.132 96.1503 296.468C93.4129 298.495 88.0482 303.139 88.4887 305.495C83.4323 305.765 72.8244 307.429 70.8437 311.917C69.4043 315.178 76.8326 328.541 84.6744 340.024C87.6234 344.343 95.7084 355.62 103.481 360.097L47.9792 367.016C40.2398 366.519 29.0249 351.143 30.8162 340.274C32.3658 330.871 46.3951 318.511 48.4115 306.155C51.1105 289.616 39.8877 271.023 17.9487 269.323C-3.40079 267.668 -15.2243 277.211 -12.6072 287.921C-11.525 292.349 -5.41308 294.071 5.14911 293.447C20.565 292.536 23.3969 300.316 24.5163 303.392C26.5739 309.045 18.5272 316.614 12.8261 322.427C7.12497 328.241 2.39765 339.425 10.0882 355.886C17.0774 370.845 22.5434 370.174 22.0876 385.631C21.7229 397.996 29.8586 419.871 33.972 429.263C33.0715 434.746 31.505 446.356 32.4432 448.933C33.3814 451.511 42.9055 479.588 47.5503 493.304L80.5963 487.184L82.6389 483.487C85.5602 482.204 90.3504 478.632 91.419 476.239C92.1251 474.659 90.2387 469.476 87.989 463.295C87.4181 461.726 80.9762 459.378 78.1393 459.408C78.2404 455.004 78.4559 441.82 80.9466 435.547C93.0566 434.025 109.657 430.795 114.812 425.557C119.035 428.248 128.464 436.33 132.395 447.132C137.31 460.634 139.141 472.826 143.828 474.248C147.578 475.385 167.385 471.814 176.819 469.886L187.109 452.409L193.355 441.799L188.72 429.064C182.073 428.633 168.66 425.038 168.188 414.105C167.597 400.44 170.562 377.81 166.122 370.294C161.682 362.778 150.319 349.624 151.324 342.684C152.329 335.743 153.061 332.068 156.716 330.737C160.372 329.407 172.002 308.526 150.819 298.321Z"
            fill="#524F4F" />
        <path
            d="M88.4887 305.495C88.0482 303.139 93.4129 298.495 96.1503 296.468C94.5979 283.132 100.151 273.226 106.98 272.742C113.81 272.258 114.016 290.699 118.154 289.693C121.464 288.889 129.795 287.278 131.251 289.93C133.84 294.647 139.422 296.798 142.623 297.801L150.819 298.321C172.002 308.526 160.372 329.407 156.716 330.737C153.061 332.068 152.329 335.743 151.324 342.684C150.319 349.624 161.682 362.778 166.122 370.294C170.562 377.81 167.597 400.44 168.188 414.105C168.66 425.038 182.073 428.633 188.72 429.064L193.355 441.799L187.109 452.409M88.4887 305.495C83.4323 305.765 72.8244 307.429 70.8437 311.917C69.4043 315.178 76.8326 328.541 84.6744 340.024C87.6234 344.343 95.7084 355.62 103.481 360.097L47.9792 367.016C40.2398 366.519 29.0249 351.143 30.8162 340.274C32.3658 330.871 46.3951 318.511 48.4115 306.155C51.1105 289.616 39.8877 271.023 17.9487 269.323C-3.40079 267.668 -15.2243 277.211 -12.6072 287.921C-11.525 292.349 -5.41308 294.071 5.14911 293.447C20.565 292.536 23.3969 300.316 24.5163 303.392C26.5739 309.045 18.5272 316.614 12.8261 322.427C7.12496 328.241 2.39765 339.425 10.0882 355.886C17.0774 370.845 22.5434 370.174 22.0876 385.631C21.7229 397.996 29.8586 419.871 33.972 429.263C33.0715 434.746 31.505 446.356 32.4432 448.933C33.3814 451.511 42.9055 479.588 47.5503 493.304L80.5963 487.184L82.6389 483.487M88.4887 305.495C89.585 305.862 91.1734 306.677 92.0783 307.267M187.109 452.409L176.819 469.886C167.385 471.814 147.578 475.385 143.828 474.248C139.141 472.826 137.31 460.634 132.395 447.132C128.464 436.33 119.035 428.248 114.812 425.557C109.657 430.795 93.0566 434.025 80.9466 435.547M187.109 452.409L182.939 440.953C178.516 440.112 169.512 438.002 168.886 436.283C168.105 434.135 159.233 415.611 160.033 404.753M80.9466 435.547C78.0366 435.912 75.3859 436.18 73.2156 436.352C68.8777 438.279 66.2473 459.219 67.0856 463.431C67.9238 467.644 77.8001 466.134 80.5489 468.435C82.748 470.276 84.2202 476.772 84.6815 479.789L82.6389 483.487M80.9466 435.547C78.4559 441.82 78.2404 455.004 78.1393 459.408C80.9762 459.378 87.4181 461.726 87.989 463.295C90.2387 469.476 92.1251 474.659 91.419 476.239C90.3504 478.632 85.5602 482.204 82.6389 483.487"
            stroke="#383434" stroke-width="4" stroke-linecap="round" stroke-linejoin="round" />
        <path
            d="M165.881 399.908C168.088 398.94 167.429 386.102 167.265 379.801C167.196 377.182 166.66 374.601 165.842 372.552C162.651 365.198 158.189 361.745 156.565 361.846C152.997 362.069 149.596 364.205 151.762 376.113C153.928 388.021 163.122 401.119 165.881 399.908Z"
            fill="white" />
        <ellipse cx="8.47612" cy="12.3211" rx="8.47612" ry="12.3211"
            transform="matrix(-0.939693 0.34202 0.34202 0.939693 156.867 298.503)" fill="white" />
        <path
            d="M146.179 303.436C146.695 302.053 148.99 299.778 150.546 299.491C152.749 300.616 154.946 301.64 155.475 302.887C155.753 303.705 155.831 305.612 153.921 306.691C151.533 308.04 145.567 305.077 146.179 303.436Z"
            fill="#F4AFAF" />
        <path
            d="M155.391 321.079C159.63 318.284 158.037 311.743 156.335 308.712C157.386 310.885 161.52 314.811 162.832 314.459"
            stroke="#383434" stroke-width="3.44626" stroke-linecap="round" stroke-linejoin="round" />
        <ellipse cx="5.41377" cy="6.02721" rx="5.41377" ry="6.02721"
            transform="matrix(-0.616185 0.787602 0.787602 0.616185 123.912 304.344)" fill="#383434" />
        <ellipse cx="2.22818" cy="2.48066" rx="2.22818" ry="2.48066"
            transform="matrix(-0.616185 0.787602 0.787602 0.616185 122.963 308.445)" fill="#D9D9D9" />
    </g>
</svg>