<svg width="441" height="441" viewBox="0 0 441 441" fill="none" xmlns="http://www.w3.org/2000/svg">
    <mask id="mask0_1664_1879" style="mask-type:alpha" maskUnits="userSpaceOnUse" x="0" y="0" width="441" height="441">
        <rect x="0.9375" y="0.174805" width="440" height="440" fill="#FC8F8F" />
    </mask>
    <g mask="url(#mask0_1664_1879)">
        <rect x="0.9375" y="0.174805" width="440" height="440" fill="#985CFA" />
        <rect x="192.166" y="128.559" width="57.5429" height="50.733" rx="7.16429" fill="#FFDD65" stroke="#383434"
            stroke-width="6.74286" />
        <path
            d="M175.309 258.139C175.309 254.183 178.516 250.975 182.473 250.975H259.402C263.359 250.975 266.566 254.183 266.566 258.139V296.905C266.566 300.193 264.34 303.019 261.227 303.74C231.995 310.516 212.15 310.529 180.764 303.65C177.59 302.955 175.309 300.099 175.309 296.773V258.139Z"
            fill="#FFDD65" stroke="#383434" stroke-width="6.74286" />
        <path
            d="M145.809 177.081C145.809 162.65 157.507 150.952 171.937 150.952H269.937C284.368 150.952 296.066 162.65 296.066 177.081V256.446C296.066 268.91 287.301 279.634 275.166 281.616C235.617 288.076 206.378 287.947 166.83 281.56C154.637 279.591 145.809 268.838 145.809 256.331V177.081Z"
            fill="#FFDD65" stroke="#383434" stroke-width="6.74286" />
        <path
            d="M145.809 177.081C145.809 162.65 157.507 150.952 171.937 150.952H269.937C284.368 150.952 296.066 162.65 296.066 177.081V256.446C296.066 268.91 287.301 279.634 275.166 281.616C235.617 288.076 206.378 287.947 166.83 281.56C154.637 279.591 145.809 268.838 145.809 256.331V177.081Z"
            stroke="#383434" stroke-width="6.74286" />
        <path
            d="M144.797 308.454C145.749 303.752 149.883 300.371 154.681 300.371H287.475C292.273 300.371 296.407 303.752 297.359 308.454L335.619 497.446C336.883 503.693 332.108 509.531 325.735 509.531H116.422C110.048 509.531 105.273 503.693 106.538 497.446L144.797 308.454Z"
            fill="#383434" stroke="#383434" stroke-width="5.97601" />
        <path
            d="M328.437 327.311C318.187 312.744 311.63 309.383 297.437 309.383L304.16 342.624L314.414 394.163L331.052 474.097C339.418 462.145 353.462 458.41 365.414 467C365.414 467 355.703 383.709 353.462 375.119C351.221 366.528 337.374 340.01 328.437 327.311Z"
            fill="#FFDD65" stroke="#383434" stroke-width="5.97601" stroke-linecap="round" stroke-linejoin="round" />
        <path
            d="M113.414 327.311C123.665 312.744 130.222 309.383 144.415 309.383L137.692 342.624L127.438 394.163L110.8 474.097C102.433 462.145 88.3895 458.41 76.4375 467C76.4375 467 86.1485 383.709 88.3895 375.119C90.6305 366.528 104.478 340.01 113.414 327.311Z"
            fill="#FFDD65" stroke="#383434" stroke-width="5.97601" stroke-linecap="round" stroke-linejoin="round" />
        <ellipse cx="199.848" cy="209.993" rx="9.30967" ry="11.5" fill="#383434" />
        <ellipse cx="200.115" cy="205.183" rx="3.95349" ry="3.95349" fill="white" />
        <path
            d="M178.84 201.165C182.126 203.658 184.871 203.803 187.503 203.046M187.503 203.046C186.772 203.205 184.475 202.126 183.137 200.238M187.503 203.046C188.548 202.745 189.575 202.303 190.611 201.809M190.611 201.809C192.835 200.748 195.1 199.448 197.67 198.806C203.098 197.449 207.062 201.809 208.803 203.863C209.191 204.321 210.148 205.323 211.183 205.79C206.636 205.79 204.867 199.691 199.955 199.691C195.043 199.691 193.232 203.448 189.204 204.197C187.467 204.52 184.927 203.749 183.137 203.269M190.611 201.809C189.633 201.994 187.503 201.165 186.529 199.691"
            stroke="#383434" stroke-width="2.33195" stroke-linecap="round" stroke-linejoin="round" />
        <ellipse cx="9.30967" cy="11.5" rx="9.30967" ry="11.5" transform="matrix(-1 0 0 1 254.578 197.996)"
            fill="#383434" />
        <ellipse cx="3.95349" cy="3.95349" rx="3.95349" ry="3.95349" transform="matrix(-1 0 0 1 248.954 200.733)"
            fill="white" />
        <path
            d="M266.275 200.668C262.989 203.16 260.244 203.306 257.612 202.549M257.612 202.549C258.344 202.708 260.64 201.629 261.978 199.741M257.612 202.549C256.567 202.248 255.541 201.806 254.505 201.312M254.505 201.312C252.281 200.251 250.016 198.951 247.445 198.309C242.017 196.952 238.053 201.312 236.313 203.366C235.925 203.824 234.967 204.826 233.933 205.293C238.479 205.293 240.248 199.194 245.16 199.194C250.073 199.194 251.883 202.951 255.911 203.7C257.648 204.023 260.188 203.252 261.978 202.772M254.505 201.312C255.482 201.497 257.612 200.668 258.587 199.194"
            stroke="#383434" stroke-width="2.38162" stroke-linecap="round" stroke-linejoin="round" />
        <path
            d="M177.367 193.899C183.861 190.666 191.246 185.898 208.058 193.307C208.211 193.374 208.397 193.351 208.509 193.225C209.278 192.359 210.841 189.671 210.043 188.426C200.956 181.812 181.665 182.352 176.816 193.402C176.662 193.751 177.022 194.071 177.367 193.899Z"
            fill="#383434" />
        <path
            d="M264.628 193.769C258.143 190.617 251.552 185.214 234.932 193.01C234.781 193.081 234.594 193.064 234.478 192.941C233.709 192.129 232.222 189.715 233.066 188.294C241.268 181.422 260.082 182.29 265.166 193.266C265.327 193.612 264.975 193.938 264.628 193.769Z"
            fill="#383434" />
        <path
            d="M215.082 235.941C212.299 235.767 206.964 240.508 204.645 242.899C198.629 240.58 188.51 238.638 196.164 249.423C205.732 262.905 211.586 269.603 223.78 269.603C239.035 269.603 251.831 249.423 252.701 247.031C253.397 245.118 248.787 244.349 246.395 244.204C242.988 241.45 235.392 235.941 232.261 235.941C228.347 235.941 225.737 239.855 223.78 239.855C221.823 239.855 218.561 236.159 215.082 235.941Z"
            fill="#E22525" />
        <path
            d="M224.566 261.955C215.706 263.22 199.253 248.771 192.134 241.388C211.08 247.376 240.489 245.575 254.624 241.388C251.46 247.716 235.64 260.373 224.566 261.955Z"
            fill="white" stroke="#383434" stroke-width="4.24724" stroke-linejoin="round" />
        <path fill-rule="evenodd" clip-rule="evenodd"
            d="M269.846 201.869C269.201 204.993 268.066 208.972 266.566 212.541C265.648 214.725 264.637 216.653 263.586 218.111C262.493 219.626 261.579 220.324 260.966 220.549C255.484 222.563 248.469 223.778 237.667 222.825C236.586 222.729 235.457 222.124 234.288 220.724C233.104 219.306 232.056 217.266 231.211 214.828C229.699 210.461 229.042 205.411 229.125 201.846C234.347 197.891 242.696 196.698 251.267 197.337C255.716 197.669 260.019 198.482 263.623 199.517C266.217 200.262 268.33 201.089 269.846 201.869ZM273.736 197.166C271.542 195.865 268.569 194.695 265.279 193.75C261.286 192.603 256.578 191.717 251.714 191.354C243.2 190.719 233.525 191.643 226.561 196.308C226.416 196.248 226.262 196.19 226.097 196.133C225.008 195.757 223.495 195.467 221.421 195.467C219.346 195.468 217.834 195.757 216.745 196.133C216.469 196.228 216.223 196.328 216.002 196.429C209.026 191.659 199.257 190.713 190.671 191.354C185.807 191.717 181.098 192.603 177.105 193.75C173.8 194.7 170.815 195.876 168.617 197.184L147.201 192.746C145.579 192.41 143.991 193.452 143.655 195.075C143.319 196.697 144.361 198.285 145.984 198.621L166.624 202.899C167.339 206.421 168.601 210.853 170.287 214.865C171.305 217.289 172.521 219.664 173.932 221.62C175.302 223.52 177.086 225.349 179.349 226.181C185.79 228.547 193.71 229.819 205.245 228.802C208.4 228.523 210.873 226.76 212.702 224.569C214.517 222.396 215.863 219.621 216.843 216.791C218.582 211.77 219.364 205.993 219.257 201.656C219.724 201.558 220.426 201.468 221.421 201.467C222.134 201.467 222.696 201.514 223.13 201.576C223.011 205.922 223.792 211.739 225.541 216.791C226.521 219.621 227.868 222.396 229.682 224.569C231.511 226.76 233.984 228.523 237.14 228.802C248.674 229.819 256.595 228.547 263.035 226.181C265.298 225.349 267.082 223.52 268.452 221.62C269.863 219.664 271.079 217.289 272.097 214.865C273.79 210.837 275.055 206.386 275.768 202.856L295.96 198.257C297.575 197.889 298.587 196.281 298.219 194.666C297.851 193.05 296.243 192.039 294.627 192.407L273.736 197.166ZM172.538 201.869C173.183 204.993 174.319 208.972 175.818 212.541C176.736 214.725 177.747 216.653 178.799 218.111C179.891 219.626 180.805 220.324 181.418 220.549C186.9 222.563 193.915 223.778 204.717 222.825C205.798 222.729 206.927 222.124 208.096 220.724C209.28 219.306 210.329 217.266 211.173 214.828C212.686 210.461 213.342 205.411 213.26 201.846C208.038 197.891 199.688 196.698 191.117 197.337C186.668 197.669 182.365 198.482 178.762 199.517C176.168 200.262 174.055 201.089 172.538 201.869Z"
            fill="#383434" />
        <path
            d="M195.836 160.223C207.637 166.803 229.742 170.955 248.026 152.684C248.026 152.684 268.635 153.39 271.263 164.912C271.263 177.445 282.144 181.863 286.985 192.866C291.826 203.868 281.099 205.06 286.985 220.722C291.138 231.774 281.099 244.609 281.099 244.609C281.099 244.609 260.905 266.351 262.424 284.511C263.943 302.671 282.09 305.49 271.263 326.097C260.435 346.703 278.453 357.042 257.492 381.35C260.681 390.938 278.134 384.715 286.985 381.35C302.361 375.504 321.116 349.522 316.577 326.097C312.038 302.671 335.466 290.925 324.749 259.979C317.502 239.056 327.193 225.022 316.577 208.949C309.459 198.172 311.003 177.697 302.277 152.684C295.297 132.674 271.263 101.474 250.871 110.689C243.545 96.1933 216.637 96.1937 206.671 96.1938L206.575 96.1938C196.686 96.1938 167.475 96.1938 160.495 116.098C156.347 127.925 151.263 120.063 140.21 135.187C129.158 150.311 131.002 162.315 128.676 179.184C127.247 189.543 108.364 209.917 108.364 225.022C108.364 240.128 114.855 244.601 113.254 259.979C112.035 271.683 108.365 278.131 108.365 292.249C108.364 306.367 117.167 317.197 123.643 326.097C129.93 334.735 129.732 342.308 133.737 352.986C144.207 380.908 187.692 397.852 195.836 394.944C203.98 392.036 171.581 368.73 171.581 343.827C171.581 335.238 182.317 320.812 182.317 303.362C182.317 285.201 166.105 267.423 160.495 259.979C148.633 244.242 156.244 237.921 160.495 225.022C164.746 212.124 149.912 202.302 156.244 192.866C160.758 186.138 164.336 183.619 164.336 171.921C164.336 160.223 182.317 152.684 195.836 160.223Z"
            fill="#F0B84B" />
        <path
            d="M248.026 152.684C229.742 170.955 207.637 166.803 195.836 160.223C182.317 152.684 164.336 160.223 164.336 171.921C164.336 183.619 160.758 186.138 156.244 192.866C149.912 202.302 164.746 212.124 160.495 225.022C156.244 237.921 148.633 244.242 160.495 259.979C166.105 267.423 182.317 285.201 182.317 303.362C182.317 320.813 171.581 335.238 171.581 343.827C171.581 368.73 203.98 392.036 195.836 394.944C187.692 397.852 144.207 380.908 133.737 352.986C129.732 342.308 129.93 334.735 123.643 326.097C117.167 317.197 108.364 306.367 108.365 292.249C108.365 278.131 112.035 271.683 113.254 259.979C114.855 244.601 108.364 240.128 108.364 225.022C108.364 209.917 127.247 189.543 128.676 179.184C131.002 162.315 129.158 150.311 140.21 135.187C151.263 120.063 156.347 127.925 160.495 116.098C167.475 96.1938 196.686 96.1938 206.575 96.1938C216.463 96.1938 243.522 96.1465 250.871 110.689M248.026 152.684C248.026 152.684 268.635 153.39 271.263 164.912C271.263 177.445 282.144 181.863 286.985 192.866C291.826 203.868 281.099 205.06 286.985 220.722C291.138 231.774 281.099 244.609 281.099 244.609C281.099 244.609 260.905 266.351 262.424 284.511C263.943 302.671 282.091 305.49 271.263 326.097C260.435 346.703 278.453 357.042 257.492 381.35C260.681 390.938 278.134 384.715 286.985 381.35C302.361 375.504 321.116 349.522 316.577 326.097C312.038 302.671 335.466 290.925 324.749 259.979C317.502 239.056 327.193 225.022 316.577 208.949C309.459 198.172 311.003 177.697 302.277 152.684C295.297 132.674 271.263 101.474 250.871 110.689M248.026 152.684C249.907 150.804 257.908 140.801 244.293 136.548C241.283 135.13 233.76 133.191 224.667 135.187M250.871 110.689C254.308 113.761 257.899 119.774 257.492 123.432M135.676 312.868C137.18 327.05 154.339 339.619 156.912 356.771M158.244 288.249C161.078 291.012 165.896 298.324 162.495 305.473M218.71 116.098C208.259 114.17 186.349 112.938 182.317 123.432M295.042 318.584C306.598 345.77 285.193 360.691 281.099 369.172M271.263 141.958C276.503 144.814 286.985 153.404 286.985 164.912M135.676 205.396C131.315 212.794 126.829 220.571 128.676 230.932C130.822 242.969 138.798 253.75 133.737 259.979M295.042 252.24C288.433 257.701 276.39 270.986 281.099 280.436M310.799 271.028C315.07 278.964 313.701 288.249 306.313 292.249"
            stroke="#B27A0D" stroke-width="7" stroke-linecap="round" stroke-linejoin="round" />
        <path
            d="M109.415 366.343C101.755 369.131 100.911 383.394 108.139 393.73C113.399 401.253 118.559 408.592 122.598 411.016C127.533 413.977 136.003 411.875 137.495 411.57C142.785 410.491 149.843 406.556 150.929 409.539C151.574 411.309 147.164 420.03 151.128 422.607C155.093 425.184 161.088 428.3 167.57 425.941C172.032 424.317 170.891 403.409 165.637 395.35C155.938 380.472 138.448 387.127 136.23 387.105C134.012 387.083 134.022 381.849 129.526 375.72C124.791 369.265 119.003 362.853 109.415 366.343Z"
            fill="#1C974D" stroke="#383434" stroke-width="4" stroke-linecap="round" stroke-linejoin="round" />
        <path
            d="M56.5326 383.097C45.2047 393.208 56.0699 406.634 61.4457 412.715C66.8216 418.796 86.7167 429.232 90.2639 431.392C93.8112 433.552 88.6721 452.466 88.8763 459.943C89.0806 467.42 92.9747 471.203 101.266 480.114C104.121 483.182 117.46 480.609 120.977 479.93L121.103 479.906C129.981 478.194 147.192 471.93 151.154 470.488L163.94 465.834C163.94 465.834 161.572 442.761 148.134 447.652C130.735 453.985 119.843 452.735 117.343 445.865C114.842 438.996 123.867 425.871 117.78 416.344C109.753 403.78 91.2977 352.066 56.5326 383.097Z"
            fill="#1C974D" stroke="#383434" stroke-width="4" stroke-linecap="round" stroke-linejoin="round" />
        <path
            d="M120.825 340.855C117.3 343.411 114.574 348.467 112.588 351.013C110.391 353.83 107.794 356.801 100.672 357.367C89.4035 358.262 60.078 366.685 49.1933 371.308C38.3086 375.931 12.1797 367.748 -7.81384 366.426C-27.8074 365.105 -59.6273 371.725 -72.1439 379.588C-84.6605 387.451 -79.1962 398.189 -69.9748 395.996C-59.0378 393.395 -44.9354 393.84 -30.334 394.962C-14.7026 396.164 35.8905 413.356 48.4925 424.809C61.0945 436.263 91.8421 438.962 122.611 424.456C153.38 409.949 144.001 388.724 146.483 387.821C148.965 386.917 152.599 374.185 151.947 368.304C151.425 363.599 155.682 346.92 157.876 339.168C177.626 331.75 194.867 313.247 196.204 311.352C197.199 309.943 196.386 306.947 195.047 303.581C193.74 300.297 192.773 296.163 190.809 293.803C187.015 289.242 159.861 285.554 145.523 284.324C139.915 283.454 136.568 288.796 135.595 291.576C117.054 298.06 118.023 327.13 120.825 340.855Z"
            fill="#1C974D" />
        <path
            d="M129.233 337.794C136.014 348.354 148.634 342.639 157.876 339.168M157.876 339.168C177.626 331.75 194.867 313.247 196.204 311.352C197.199 309.943 196.386 306.947 195.047 303.581C193.74 300.297 192.773 296.163 190.809 293.803C187.015 289.242 159.861 285.554 145.523 284.324C139.915 283.454 136.568 288.796 135.595 291.576C117.054 298.06 118.023 327.13 120.825 340.855C117.3 343.411 114.574 348.467 112.588 351.013C110.391 353.83 107.794 356.801 100.672 357.367C89.4035 358.262 60.078 366.685 49.1933 371.308C38.3086 375.931 12.1797 367.748 -7.81384 366.426C-27.8074 365.105 -59.6273 371.725 -72.1439 379.588C-84.6605 387.451 -79.1962 398.189 -69.9748 395.996C-59.0378 393.395 -44.9354 393.84 -30.334 394.962C-14.7026 396.164 35.8905 413.356 48.4925 424.809C61.0945 436.263 91.8421 438.962 122.611 424.456C153.38 409.949 144.001 388.724 146.483 387.821C148.965 386.917 152.599 374.185 151.947 368.304C151.425 363.599 155.682 346.92 157.876 339.168Z"
            stroke="#383434" stroke-width="4" stroke-linecap="round" stroke-linejoin="round" />
        <path
            d="M117.361 367.707C109.701 370.495 108.857 384.759 116.085 395.094C121.346 402.617 126.505 409.956 130.544 412.38C135.48 415.341 143.949 413.239 145.441 412.935C150.732 411.855 157.79 407.92 158.876 410.903C159.52 412.673 155.11 421.394 159.075 423.971C163.039 426.548 169.034 429.665 175.517 427.305C179.978 425.681 178.837 404.773 173.584 396.715C163.885 381.836 146.395 388.491 144.177 388.469C141.959 388.448 141.968 383.213 137.472 377.084C132.737 370.629 126.95 364.217 117.361 367.707Z"
            fill="#1C974D" stroke="#383434" stroke-width="4" stroke-linecap="round" stroke-linejoin="round" />
        <path
            d="M48.8461 391.216C37.5182 401.327 48.3833 414.753 53.7592 420.834C59.1351 426.915 79.0301 437.351 82.5774 439.511C86.1247 441.671 80.9855 460.586 81.1898 468.062C81.3941 475.539 85.2881 479.322 93.5797 488.233C96.4348 491.302 109.774 488.728 113.291 488.049L113.417 488.025C122.294 486.313 139.506 480.049 143.467 478.607L156.254 473.953C156.254 473.953 153.885 450.88 140.447 455.771C123.048 462.104 112.156 460.854 109.656 453.984C107.156 447.115 116.18 433.99 110.094 424.463C102.067 411.899 83.6111 360.185 48.8461 391.216Z"
            fill="#1C974D" stroke="#383434" stroke-width="4" stroke-linecap="round" stroke-linejoin="round" />
        <path
            d="M136.158 327.115C133.394 328.121 128.956 324.521 127.082 322.596C116.967 312 133.385 295.854 137.138 294.88C140.89 293.905 148.79 300.026 148.806 300.607C148.822 301.188 147.786 303.716 150.505 311.723C153.224 319.73 139.612 325.858 136.158 327.115Z"
            fill="#033561" />
        <path
            d="M141.077 315.863C143.482 314.987 144.673 312.971 145.224 311.227C145.502 310.348 145.632 309.499 145.675 308.813C145.697 308.47 145.697 308.157 145.681 307.892C145.666 307.659 145.634 307.368 145.545 307.124C145.457 306.882 145.31 306.705 145.224 306.609C145.123 306.496 145.008 306.392 144.896 306.298C144.671 306.111 144.389 305.913 144.081 305.717C143.461 305.323 142.658 304.889 141.808 304.504C140.961 304.121 140.033 303.77 139.167 303.561C138.356 303.366 137.387 303.239 136.588 303.53C135.296 304.001 134.145 305.209 133.463 306.616C132.767 308.052 132.473 309.868 133.12 311.646C133.753 313.386 135.065 314.67 136.513 315.406C137.942 316.131 139.638 316.386 141.077 315.863Z"
            fill="#FFDD65" stroke="black" stroke-width="2.19076" />
        <ellipse cx="138.646" cy="309.764" rx="0.701467" ry="2.95765" transform="rotate(-20 138.646 309.764)"
            fill="#383434" />
        <path
            d="M195.047 303.581C192.186 305.552 187.021 308.934 184.692 312.49C181.004 318.122 170.932 326.362 149.929 328.195C149.318 328.304 147.122 328.563 146.541 329.973"
            stroke="#383434" stroke-width="3" stroke-linecap="round" stroke-linejoin="round" />
        <path d="M170.988 302.016C174.622 301.174 180.629 301.606 176.25 305.195" stroke="#383434" stroke-width="3"
            stroke-linecap="round" stroke-linejoin="round" />
        <path fill-rule="evenodd" clip-rule="evenodd"
            d="M110.807 363.499C112.013 360.542 113.684 358.006 114.872 356.203C115.196 355.712 115.483 355.276 115.716 354.899C116.58 353.504 117.469 351.861 118.338 350.255L118.339 350.254L118.339 350.254L118.339 350.254L118.339 350.254C118.894 349.229 119.44 348.219 119.967 347.298C120.663 346.081 121.472 344.987 122.082 344.163L122.082 344.162L122.082 344.162C122.895 343.063 123.353 342.444 122.713 342.656C120.925 343.245 118.872 345.937 117.439 348.218C115.109 351.929 109.878 358.815 107.095 360.952C104.313 363.089 99.8606 365.646 95.0772 365.326C90.6878 365.033 72.2913 368.062 64.1617 371.253L63.7848 371.401C54.4276 375.076 32.6606 383.624 24.663 378.405C16.556 373.114 4.47345 372.632 0.195135 373.45C-3.57125 374.169 -8.64486 373.002 -13.0224 371.995C-15.642 371.393 -18.0123 370.847 -19.7041 370.798C-23.5732 370.685 -40.5515 372.049 -43.3633 373.073C-44.0772 373.333 -45.1765 373.636 -46.4106 373.977C-50.0374 374.978 -54.8285 376.3 -54.4211 377.782C-53.9612 379.455 -49.8194 377.917 -45.8809 376.454C-45.3916 376.272 -44.9054 376.092 -44.4298 375.919C-42.1013 375.071 -40.9357 376.031 -39.6741 377.07C-38.1865 378.295 -36.5657 379.63 -32.7477 378.24C-31.818 377.902 -30.8705 377.518 -29.9266 377.135L-29.9266 377.135L-29.9265 377.135L-29.9265 377.135C-25.6448 375.399 -21.439 373.694 -19.3226 376.433C-17.0371 379.39 -10.831 385.771 -7.26071 381.783C-3.53471 377.62 6.52749 374.891 10.1085 381.642C13.6895 388.393 20.8634 395.708 26.789 395.793C32.0688 395.869 44.0214 388.15 49.012 384.153C53.7283 380.376 62.6187 375.642 73.355 373.232C80.4196 371.647 85.7347 374.49 90.8447 377.224C93.5005 378.645 96.101 380.036 98.8629 380.76C105.155 382.41 107.415 374.634 109.258 368.296L109.258 368.296C109.78 366.499 110.269 364.817 110.807 363.499ZM7.55706 382.76C8.3561 384.955 7.79372 387.175 6.30095 387.718C4.80818 388.262 2.9503 386.922 2.15127 384.727C1.35223 382.532 1.91461 380.312 3.40738 379.768C4.90015 379.225 6.75802 380.564 7.55706 382.76ZM-26.214 380.59C-25.3785 380.144 -24.9241 379.365 -25.199 378.849C-25.4739 378.333 -26.374 378.276 -27.2094 378.721C-28.0449 379.166 -28.4993 379.945 -28.2244 380.461C-27.9496 380.977 -27.0494 381.035 -26.214 380.59ZM-23.6356 376.837C-23.0518 376.805 -22.537 377.546 -22.4858 378.491C-22.4345 379.436 -22.8662 380.228 -23.45 380.26C-24.0338 380.292 -24.5486 379.551 -24.5998 378.606C-24.6511 377.661 -24.2194 376.869 -23.6356 376.837ZM-43.6405 381.006C-42.9645 379.398 -43.0655 377.822 -43.8662 377.486C-44.6668 377.149 -45.8638 378.179 -46.5398 379.787C-47.2158 381.395 -47.1147 382.971 -46.3141 383.308C-45.5134 383.645 -44.3164 382.614 -43.6405 381.006Z"
            fill="#033561" />
    </g>
</svg>