<svg width="14" height="14" viewBox="0 0 14 14" fill="none" xmlns="http://www.w3.org/2000/svg">
<path d="M1.5 6C1.0875 6 0.734375 5.85313 0.440625 5.55937C0.146875 5.26562 0 4.9125 0 4.5V1.5C0 1.0875 0.146875 0.734375 0.440625 0.440625C0.734375 0.146875 1.0875 0 1.5 0H4.5C4.9125 0 5.26562 0.146875 5.55937 0.440625C5.85313 0.734375 6 1.0875 6 1.5V4.5C6 4.9125 5.85313 5.26562 5.55937 5.55937C5.26562 5.85313 4.9125 6 4.5 6H1.5ZM1.5 13.5C1.0875 13.5 0.734375 13.3531 0.440625 13.0594C0.146875 12.7656 0 12.4125 0 12V9C0 8.5875 0.146875 8.23438 0.440625 7.94063C0.734375 7.64688 1.0875 7.5 1.5 7.5H4.5C4.9125 7.5 5.26562 7.64688 5.55937 7.94063C5.85313 8.23438 6 8.5875 6 9V12C6 12.4125 5.85313 12.7656 5.55937 13.0594C5.26562 13.3531 4.9125 13.5 4.5 13.5H1.5ZM9 6C8.5875 6 8.23438 5.85313 7.94063 5.55937C7.64688 5.26562 7.5 4.9125 7.5 4.5V1.5C7.5 1.0875 7.64688 0.734375 7.94063 0.440625C8.23438 0.146875 8.5875 0 9 0H12C12.4125 0 12.7656 0.146875 13.0594 0.440625C13.3531 0.734375 13.5 1.0875 13.5 1.5V4.5C13.5 4.9125 13.3531 5.26562 13.0594 5.55937C12.7656 5.85313 12.4125 6 12 6H9ZM9 13.5C8.5875 13.5 8.23438 13.3531 7.94063 13.0594C7.64688 12.7656 7.5 12.4125 7.5 12V9C7.5 8.5875 7.64688 8.23438 7.94063 7.94063C8.23438 7.64688 8.5875 7.5 9 7.5H12C12.4125 7.5 12.7656 7.64688 13.0594 7.94063C13.3531 8.23438 13.5 8.5875 13.5 9V12C13.5 12.4125 13.3531 12.7656 13.0594 13.0594C12.7656 13.3531 12.4125 13.5 12 13.5H9ZM1.5 4.5H4.5V1.5H1.5V4.5ZM9 4.5H12V1.5H9V4.5ZM9 12H12V9H9V12ZM1.5 12H4.5V9H1.5V12Z" fill="white"/>
</svg>
